<svg width="11" height="8" viewBox="0 0 11 8" fill="none" xmlns="http://www.w3.org/2000/svg">
<path d="M4.9811 0.814468C5.17902 0.517601 5.61524 0.517601 5.81315 0.814467L7.46513 3.29243C7.62779 3.53641 7.96452 3.58869 8.1935 3.40551L9.65895 2.23315C10.0234 1.94162 10.5531 2.26403 10.4616 2.72164L9.62591 6.90002C9.57917 7.13374 9.37396 7.30197 9.13562 7.30197L1.65864 7.30197C1.42029 7.30197 1.21509 7.13374 1.16834 6.90002L0.332668 2.72164C0.241146 2.26403 0.770895 1.94162 1.13531 2.23315L2.60076 3.40551C2.82974 3.58869 3.16647 3.53641 3.32913 3.29243L4.9811 0.814468Z" fill="url(#paint0_linear_545_132)"/>
<defs>
<linearGradient id="paint0_linear_545_132" x1="5.39713" y1="0.19043" x2="5.39713" y2="7.30197" gradientUnits="userSpaceOnUse">
<stop stop-color="#FF3D00"/>
<stop offset="1" stop-color="#FFD74A"/>
</linearGradient>
</defs>
</svg>
