<svg width="131" height="23" viewBox="0 0 131 23" fill="none" xmlns="http://www.w3.org/2000/svg">
<path d="M4.75423 19.2182C7.12355 19.2182 8.80701 17.9712 8.80701 15.8669C8.80701 13.5599 6.95208 12.9832 5.29979 12.4844C3.60074 11.97 3.33575 11.6271 3.33575 11.1282C3.33575 10.6918 3.72544 10.3021 4.50482 10.3021C5.50243 10.3021 6.01683 10.7853 6.39093 11.5647L8.49526 10.3333C7.70029 8.72775 6.2974 7.87043 4.50482 7.87043C2.61872 7.87043 0.841732 9.08627 0.841732 11.1906C0.841732 13.2793 2.43167 14.0587 4.05278 14.5108C5.68948 14.9628 6.31299 15.2278 6.31299 15.8981C6.31299 16.3189 6.01683 16.7866 4.83217 16.7866C3.60074 16.7866 2.93047 16.1786 2.54078 15.2746L0.389691 16.5216C0.997608 18.1271 2.46285 19.2182 4.75423 19.2182ZM14.8544 10.988C13.8256 10.988 13.0462 11.3621 12.6254 11.9388V8.08866H10.2872V19H12.6254V14.7446C12.6254 13.6379 13.2177 13.1391 14.075 13.1391C14.8232 13.1391 15.4311 13.5911 15.4311 14.5575V19H17.7693V14.2146C17.7693 12.1103 16.4288 10.988 14.8544 10.988ZM25.345 11.2062V11.9388C24.8306 11.3465 24.0668 10.988 23.0224 10.988C20.9805 10.988 19.297 12.7805 19.297 15.1031C19.297 17.4256 20.9805 19.2182 23.0224 19.2182C24.0668 19.2182 24.8306 18.8597 25.345 18.2674V19H27.6831V11.2062H25.345ZM23.4901 17.0048C22.4145 17.0048 21.6351 16.2722 21.6351 15.1031C21.6351 13.934 22.4145 13.2014 23.4901 13.2014C24.5656 13.2014 25.345 13.934 25.345 15.1031C25.345 16.2722 24.5656 17.0048 23.4901 17.0048ZM32.0484 12.5935V11.2062H29.7103V19H32.0484V15.4772C32.0484 13.934 33.4201 13.5443 34.3866 13.7002V11.0503C33.4045 11.0503 32.3602 11.5491 32.0484 12.5935ZM37.6517 16.0384H43.1853C43.2476 15.7422 43.2788 15.4304 43.2788 15.1031C43.2788 12.7494 41.5953 10.988 39.3196 10.988C36.8567 10.988 35.1732 12.7805 35.1732 15.1031C35.1732 17.4256 36.8255 19.2182 39.491 19.2182C40.9718 19.2182 42.1253 18.6727 42.8891 17.6127L41.0186 16.5372C40.7068 16.8801 40.1613 17.1295 39.5222 17.1295C38.6649 17.1295 37.9478 16.8489 37.6517 16.0384ZM37.6049 14.2925C37.8231 13.4976 38.4155 13.0611 39.304 13.0611C40.0054 13.0611 40.7068 13.3885 40.9563 14.2925H37.6049ZM51.6973 16.5995V8.08866H49.2033V19H55.5943V16.5995H51.6973ZM58.0956 10.5203C58.8594 10.5203 59.4985 9.88124 59.4985 9.11744C59.4985 8.35365 58.8594 7.71456 58.0956 7.71456C57.3318 7.71456 56.6927 8.35365 56.6927 9.11744C56.6927 9.88124 57.3318 10.5203 58.0956 10.5203ZM56.9265 19H59.2647V11.2062H56.9265V19ZM68.7695 19L65.8546 15.1031L68.6915 11.2062H65.9637L63.6255 14.6199V8.08866H61.2874V19H63.6255V15.5551L66.1196 19H68.7695ZM71.5578 16.0384H77.0914C77.1538 15.7422 77.1849 15.4304 77.1849 15.1031C77.1849 12.7494 75.5015 10.988 73.2257 10.988C70.7628 10.988 69.0794 12.7805 69.0794 15.1031C69.0794 17.4256 70.7317 19.2182 73.3972 19.2182C74.878 19.2182 76.0315 18.6727 76.7953 17.6127L74.9247 16.5372C74.613 16.8801 74.0674 17.1295 73.4283 17.1295C72.571 17.1295 71.854 16.8489 71.5578 16.0384ZM71.511 14.2925C71.7293 13.4976 72.3216 13.0611 73.2101 13.0611C73.9115 13.0611 74.613 13.3885 74.8624 14.2925H71.511ZM90.046 19H92.7738L89.0639 8.08866H85.8841L82.1742 19H84.902L85.4476 17.2854H89.5004L90.046 19ZM86.1958 14.9472L87.474 10.9412L88.7522 14.9472H86.1958ZM107.047 19L103.213 13.404L106.891 8.08866H104.054L100.719 12.8273V8.08866H98.2246V19H100.719V13.9496L104.21 19H107.047ZM109.385 10.5203C110.149 10.5203 110.788 9.88124 110.788 9.11744C110.788 8.35365 110.149 7.71456 109.385 7.71456C108.621 7.71456 107.982 8.35365 107.982 9.11744C107.982 9.88124 108.621 10.5203 109.385 10.5203ZM108.216 19H110.554V11.2062H108.216V19ZM117.144 10.988C116.115 10.988 115.336 11.3621 114.915 11.9388V11.2062H112.577V19H114.915V14.7446C114.915 13.6379 115.507 13.1391 116.365 13.1391C117.113 13.1391 117.721 13.5911 117.721 14.5575V19H120.059V14.2146C120.059 12.1103 118.718 10.988 117.144 10.988ZM127.697 11.2062V12.0012C127.183 11.3621 126.434 10.988 125.421 10.988C123.208 10.988 121.587 12.7961 121.587 14.9472C121.587 17.0983 123.208 18.9065 125.421 18.9065C126.434 18.9065 127.183 18.5324 127.697 17.8933V18.6103C127.697 19.717 127.027 20.2782 125.936 20.2782C124.907 20.2782 124.455 19.8417 124.159 19.2962L122.163 20.4496C122.88 21.7278 124.236 22.3358 125.858 22.3358C127.931 22.3358 129.973 21.229 129.973 18.6103V11.2062H127.697ZM125.811 16.7554C124.704 16.7554 123.925 16.0228 123.925 14.9472C123.925 13.8717 124.704 13.1391 125.811 13.1391C126.918 13.1391 127.697 13.8717 127.697 14.9472C127.697 16.0228 126.918 16.7554 125.811 16.7554Z" fill="#EDF1F7"/>
<path d="M97.0718 4.03474C97.0947 3.67869 97.4725 3.46058 97.7924 3.61872L100.462 4.93871C100.725 5.06868 101.043 4.94559 101.149 4.67246L101.832 2.92443C102.002 2.48976 102.622 2.5041 102.772 2.94616L104.137 6.98259C104.213 7.20836 104.12 7.45665 103.913 7.57582L97.4382 11.3143C97.2318 11.4335 96.97 11.3904 96.8126 11.2114L93.9997 8.01062C93.6916 7.66008 93.9892 7.11599 94.4506 7.18626L96.3059 7.46883C96.5958 7.51298 96.8612 7.29933 96.8801 7.00671L97.0718 4.03474Z" fill="url(#paint0_linear_542_161)"/>
<defs>
<linearGradient id="paint0_linear_542_161" x1="97.1201" y1="3.2863" x2="100.676" y2="9.44507" gradientUnits="userSpaceOnUse">
<stop stop-color="#FF3D00"/>
<stop offset="1" stop-color="#FFD74A"/>
</linearGradient>
</defs>
</svg>
